<?xml version="1.0" encoding="UTF-8"?>
<svg id="ART" xmlns="http://www.w3.org/2000/svg" viewBox="0 0 360 360">
  <defs>
    <style>
      .cls-1 {
        fill: #442c8b;
      }
    </style>
  </defs>
  <g>
    <path class="cls-1" d="M266.81,271.59c-5.03,4.72-10.46,9.01-16.2,12.87-5.5-10-16.86-22.79-22.56-28.93l-2-8.51h46.6l-1.7,7.08-30.05.07,2.24,3.21,26.37,2.44-2.7,11.78ZM219.01,242.19h61.02l2.68-9.11s-34.09-2.24-66.33,0l2.62,9.11ZM228.37,212.23c.21,8.57,6.14,14.86,12.51,15.79-8.06-9.12-4.3-18.64,3.69-22.2-3.84,8.18-2.11,14.17,3.19,18.38,3.89-4.4-.89-11.87-.89-11.87,7.09,1.96,7.85,8.19,7.85,8.19,3.61-7.44-.45-11.14-4.48-14.19-6.75-5.12-9.92-11.93-3.52-20.66-.41,5.51,2.87,10.52,9.18,15.27,17.98,13.55.9,26.98.9,26.98,8.92-1.4,14.33-9.8,13.91-17.16-.56-9.88-8.75-15.18-13.65-20.32-6.6-6.92-4.8-11.59-4.04-15-10.35,4.81-25.01,21.84-24.65,36.8Z"/>
    <path class="cls-1" d="M161.64,257.57c-6.6,15.4-10.91,32.14-11.9,44.92-3.59-.85-7.11-1.86-10.58-3,2.1-6.3,11.13-31.85,22.48-41.92ZM169.75,159.41c-6.26-.49-13.53,5.88-18.32,8.08,1.02,1.14,3.7.85,6.39-.35,3.95-1.77,5.21-2.38,6.98-2.68,2.39-.4,4.42.2,5.35,1.49,0,0-6.23.36-10.01,3.77.62,1.49,2.57,2.77,4.79,2.77h7.37s.73,3.82,1.75,8.28l2.41-1s.27-11.35-.4-14.6c-.68-3.25-2.93-5.51-6.3-5.77ZM134.38,277.34s-13.99-18.5-30.78-22.61c5.7,7.7,16.82,24.18,20.98,38.8-25.2-12.16-45.92-32.41-58.57-57.32,2.6-.44,5.91-.7,7.56-.46-6.92-3.87-9.57-11.39-8.96-16.07.72-5.55,4.01-9.16,9.74-10.88-1.63-4.29-1.94-10.93,4.39-15.93-4.06-6.69-.3-15.29,2.56-17.77-2.38-1.91-4.42-4.27-4.24-6.68.22-2.95.68-7.3.9-9.07.22-1.77,1.09-3.09,2.12-3.81,1.7-1.2,3.04-1.19,5.05-1.57,4.45-16.06,17.04-35.59,34.94-42.27,19.91-7.46,47.42-3.99,57.73,14.93,0,0,17.17,2.21,15.32,8.43-2.15,7.24-3.86,11.57-6.55,17.54-.73,6.2-2.66,12.16-2.66,12.16.35,7.38,4.94,17.38,6.71,25.57.78,3.59-8.11,4.39-8.54,4.55-.6.22-.79.56-.85,1.4-.08,1.21,0,2.4-.27,5.8-.49,6.2-1.3,14.03-4.88,17.76-2.55,2.66-7.83,3.44-14.44,2.73-4.94-.53-10.26-2.24-14.27-3.53,0,0-.59,7.65,12.79,11.21,22.43,5.98,37.9,11.2,49.32,17.42,15.03,8.19,25.39,28.62,30.75,43.15-13.4,7.26-28.24,12.15-43.97,14.19,2.91-28.5,8.93-53.34,8.93-53.34-4.96-3.15-11.9-5.59-17.17-7.15-6.82,14.44-12.93,43.15-15.35,61.39-4.05-.22-8.05-.63-11.99-1.23,1.26-25.03,4.2-39.35,8.84-57.2-12,2.51-27.8,12.58-35.12,29.86ZM180.29,164.1c.91-3.75,1.16-8.5,1.23-10.59.02-.63-.4-1.2-1.01-1.37-12.52-3.47-22.32.03-31.26,6.21-7.19,4.97-14.95,13.37-8.93,21.11,4.05,5.21,7.94,10.33,6.83,14.9-.91,3.71-11.51,2.75-8.02,9.01,4.99,8.97,12.66,12.8,18.06,14.41,1.73.47,3.46.83,5.13,1.04h.17s-.05,0-.13,0c4.68.58,8.9-.07,11.58-3.02,1.83-2.12,1.29-4.6.75-5.49-.84-1.38-3.34-2.06-3.87-5.04,0,0,2.67.77,4.4.77s2.44-4.16.59-4.16h-11.41c-1.32,0-1.52-1.04-1.52-1.59s.26-1.43,1.52-1.43c2.6,0,9.37.04,11.65,0,.67-.01,1.23-.63,1.04-1.27-.64-2.18-1.25-6.35-1.25-6.35,0,0,7.05-1.21,8.77-2.02.94-.44.56-1.65.56-1.65-1.49-5.95-4.29-18.2-4.88-23.46ZM131.24,138.96c4.29-.6,9.44-2.91,13.32-4.92,9.3-4.81,15.25-6.74,27.69-7.55-9.83-12.98-27.35-15.28-40.67-12.12-8.47,2.01-18.25,7.86-21.38,15.46-3.12,7.6,10.72,10.57,21.04,9.14ZM108.42,153.7c6.13,0,19.77-10.74,19.77-10.74,0,0-10.02,3.27-16.93,2.53-3.9-.42-6.83-2.15-6.83-2.15-2.3,2.31-2.16,10.36,4,10.36ZM95.06,164.38c.12,2.03,1.29,5.49,2.21,6.88.92,1.39,1.77,1.83,2.91,1.83,1.41,0,3.28-.23,4.9-.53,13.35-2.42,26.23-9.73,40.65-18.54,10.65-6.5,22.99-10.23,35.33-7.19.7.17,1.42-.2,1.65-.88l3.53-9.46c.25-.72-.08-1.53-.78-1.82-9.07-3.79-25.6-1.63-36.56,3.67-10.96,5.3-13.13,7.39-23.4,13.98-7.98,5.12-15.75,8.66-28.61,10.47-1.31.18-1.92.48-1.85,1.59ZM91.69,189.56c7.4,3.71,16.27-3.07,19.95-11.2-9.54,4.46-18.09,3.84-23.1.32,0,0-1.53,8.54,3.15,10.88ZM92.82,207.98c9.85,1.3,17.22-11.44,18.89-19.05-14.25,15.63-24.46,10.25-24.46,10.25,0,0-1.4,7.88,5.57,8.8ZM114.02,201.96s-11.18,24.05-30.18,14.61c0,0-1.43,9.29,7.66,12.05,6.5,1.97,20.38-3.06,22.52-26.66ZM133.15,267.04c6.51-10.11,16.15-22.15,31.11-29.12-9.53-1.79-16.52-1.31-26.53,3.21v-25.49c-13.51-6.46-14.11,21.99-38.36,24.5,16.73,8.61,28.95,21.41,33.78,26.9Z"/>
    <path class="cls-1" d="M230.71,69.91l-6.72.58c-.39-.64-.87-1.62-1.06-2.11l-4.93.35c-15.87,17.98-36.75,32.04-51.23,41.01,1.2.66,1.88,1.05,2.87,1.69,16.77-10.36,39.52-26.65,48.15-37.18v9.15c-10.09,9.1-27.83,21.67-43.73,31.18.78.62,1.56,1.36,2.33,2.09,15-8.77,29.22-18.49,40.61-27.76v16.48l-.6.48v20.82l-1.18.78v17.46c-5.71-.77-11.62-1.47-17.76-2.04,0,0-1.48,4.55-3.77,9.29,60.55,5.19,83.76,13.34,113.42,23.09-.06-2.13-.17-4.24-.34-6.34,0,0-.36-.03-2.27-.79-16.26-6.51-52.16-58.85-67.52-100.76l-4.79.39c-.57.86-.86,1.23-1.49,2.13ZM238.05,125.37v-20.82l-.73-.55v-3.69c2.56,6.44,24.77,42.18,41.93,58.57-11.03-3.42-24.47-6.97-40.07-10v-22.94l-1.13-.56ZM222.99,75.22l3.97-.3c-1.49,1.79-2.5,2.75-3.97,4.24v-3.94ZM222.99,84.06c2.94-2.81,6.49-6.21,8.41-8.46v10.76l-8.41.63v-2.93ZM222.99,93.84l.61-.93,7.15-.47.64.75v11.2l-8.41.59v-11.14ZM222.99,112.7l.54-.78,7.31-.48.56.69v13.49l-8.41.6v-13.52ZM222.99,136.12l.39-.98,7.58-.52.44,1.05v11.77c-2.74-.48-5.55-.94-8.41-1.38v-9.95ZM236.83,77.94c3.86,10.47,33.95,67.2,55.76,85.45-2.02-.8-2.44-.88-5.72-2.05-19.54-16.92-40.8-49.79-49.54-69.07v-5.53l-.5-.62v-8.18ZM57.02,143.88c6.9-1.71,17.6-3.75,27.16-4.2,0,0-2.93,5.25-4.52,9.13-3.77.28-15.62,1.48-24.59,2.73.6-2.58,1.18-5.14,1.94-7.66Z"/>
  </g>
  <path class="cls-1" d="M107.39,295.64c1.62,1.04,3.81,2.91,4.75,3.88l-4.16,7.32-.07-.05c-1.6-3.43-2.17-4.58-3.54-5.45-1.4-.9-2.92-.72-3.85.73-.59.93-.35,2.34.08,4.18l1.13,4.17c.73,2.61.45,4.99-.93,7.14-3.08,4.82-8.98,5.03-14.23,1.68-1.44-.92-2.75-2.13-3.45-2.99l3.57-6.97.07.05c.82,2.87,1.74,4.35,2.96,5.13,1.4.9,2.69.83,3.43-.32.57-.89.27-2.13-.16-3.81l-1.33-4.51c-.78-2.85-.44-5.5,1.11-7.92,3.51-5.49,9.25-5.69,14.61-2.27ZM81.71,296.85c-7.56,3.28-10.62,4.59-12.08,5.22-.08.04-.14.11-.14.2-.08,1.01-.08,2,.02,3.36l-.06.06-6.73-6.31c-.08-.08-.1-.2-.05-.29.44-.79,1.01-2.53,5.46-14.98,4.05-11.13,5.26-13.85,5.41-15.58.06-.7-.49-1.3-1.19-1.31-2.15-.03-4.5,1.56-12.78,7.09l-4.5,3.01c-2.42,1.61-4.81,3.26-8.37,5.86l-.39-.43c.42-6.18,1.26-15.39,1.94-22.69-.48.32-.95.64-1.43.95-6.96,4.65-7.72,5.48-8.25,8.73l-.07.05-6.58-9.84.08-.05c2.78.52,3.34.25,13.55-6.58,8.16-5.45,10.69-7.3,12.69-8.9l.27.24c-.96,5.22-2.3,15.66-3.26,24.05.63-.48,1.4-.99,2.25-1.55,7.69-5.14,8.6-6.1,9.06-9.3l.07-.05s4.59,6.42,7.53,9.73c2.94,3.3,8.33,9,8.33,9l-.06.06c-1.24.17-2.07.35-2.95,1.28-.74.79-1.66,2.28-2.68,4.59-.04.09-.03.21.05.28.9.9,1.92,1.85,3.05,2.91,1.39,1.3,2.6,2.43,3.77,3.37.08.06.19.07.28.02,2.08-1.12,3.32-2.02,4.05-2.8.91-.97,1.22-2.06,1.31-3.24l.06-.07s2.53,2.25,4.28,3.58c1.75,1.33,5.21,3.99,5.21,3.99l-.06.06c-1.9-.21-3.57.39-17.07,6.27ZM78.86,291.26c-.68-.68-1.42-1.38-2.23-2.13-.64-.6-1.28-1.2-1.85-1.74-.44,1.04-.9,2.24-1.39,3.53-.55,1.48-1.07,2.8-1.56,3.97,1.07-.51,2.33-1.08,3.89-1.78,1.13-.52,2.14-1,3.07-1.46.15-.07.18-.27.06-.39ZM51.79,231.23l.08-.03s-1.71-4.21-2.46-6.47c-.74-2.26-1.88-5.86-1.88-5.86l-.08.03c-1.35,2.52-2.2,3.17-10.88,6.1l-.34-1.04c-.63-1.91-1.35-4.22-2.08-7.25l-5.81,2.06c1.17,2.57,1.93,4.72,2.54,6.54l.46,1.37c-2.59.86-4.61,1.48-6.19,1.91-.3-.77-.58-1.61-.91-2.61-.83-2.5-1.06-4.17-.79-6.16l-.03-.08-6.55,2.63.03.08c.71,1.15,2.14,5.2,3.5,9.32,1.18,3.58,2.3,7.23,2.79,8.86l.09-.03c1.46-2.74,2.43-3.3,13.43-6.94,11-3.64,12.27-3.78,15.08-2.44ZM29.37,209.57c-11.97,1.53-12.78,1.81-14.51,4.24h-.08c-.15-1.87-.31-3.13-.71-6.3-.37-2.91-.67-4.6-1.32-9.64-.83-6.52,1.9-9.83,7.32-10.52,3.54-.45,6.61.97,8.6,3.37,8.24-6.03,10.87-7.98,11.74-9.45.2-.34.13-.77-.13-1.06-1.07-1.17-3.63-2.59-13.87-8.39-7.38-4.19-10.22-5.82-11.55-6.58-.9.56-1.72,1.18-2.8,2.12h-.09s1.01-9.37,1.01-9.37c.9-.08,1.95-.23,15.47-4.45,10.38-3.17,13.61-4.2,15.19-5.14.77-.46,1.03-1.45.48-2.16-1.23-1.62-3.7-2.32-13.01-5.62l-5.1-1.81c-2.74-.97-5.49-1.9-9.7-3.21l.11-.57c5.21-3.36,13.28-9.14,19.54-12.96-.54-.19-1.08-.38-1.62-.57-7.88-2.8-9.01-2.92-11.93-1.4l-.08-.03,3.95-11.15.08.03c1.25,2.54,1.8,2.83,13.38,6.93,9.26,3.28,12.25,4.21,14.73,4.85l-.03.36c-4.76,2.36-14.12,8.47-21.42,12.71.76.22,1.63.53,2.59.87,8.71,3.09,9.75,3.26,12.59,1.71l.08.03s-1.04,2.89-1.63,5.07c-.57,2.07-1.03,3.62-1.58,6.16-.55,2.54-.91,4.39-1.26,6.25-.4,2.14-.94,6.26-.94,6.26h-.09c-.88-.9-1.53-1.45-2.8-1.59-1.09-.12-2.67.11-5.21.71-.19,1.3-.34,2.74-.52,4.35-.21,1.96-.39,3.66-.43,5.2,2.23,1.04,3.73,1.51,4.83,1.62,1.31.14,2.11-.26,3.11-.9h.09s-.58,7.48-.41,11.03c.17,3.55.1,5.14.47,8.05.14,1.13-.17,1.79-1.09,2.57-1.88,1.65-5.63,4.25-9.5,7,.09,1.05.12,1.97.09,2.77,9.04-1.19,9.79-1.6,11.37-3.83h.09s.45,3.9.94,6.52c.49,2.62,1.32,6.33,1.32,6.33h-.09c-2.29-1.95-3.66-1.93-15.63-.41ZM29.78,160.59c-1.09.28-2.32.63-3.65,1.01-1.51.46-2.88.83-4.11,1.14,1.05.55,2.26,1.21,3.77,2.04,1.21.66,2.3,1.22,3.31,1.72.16-1.04.28-2.17.41-3.39.09-.87.19-1.74.27-2.53ZM26.09,201.64c-.06-1.14-.16-2.28-.23-2.89-.29-2.3-1.92-3.6-4.28-3.3-2.45.31-3.52,1.68-3.17,4.38.09.74.25,1.6.42,2.64,2.28-.25,4.69-.51,7.26-.84ZM42.4,110.15c8.04,4.92,16.83,2.02,21.53-5.68,2.06-3.36,3.02-6.37,3.21-7.95l-7.06-5.24-.02.04c.76,3.91.61,5.67-.62,7.68-2.79,4.56-7.69,6.08-12.88,2.91-4.32-2.64-4.91-7.42-2.35-11.6,1.64-2.69,2.79-3.38,6.99-3.84l.05-.08-8.88-4.72c-.87,1.01-2.8,3.22-4.21,5.54-5.08,8.3-4.02,17.88,4.24,22.93ZM61.1,82.15c8.77,7.57,9.39,8.4,9.69,11.49l.07.06s2.14-2.87,4.27-5.31,4.23-4.54,4.23-4.54l-.07-.06c-3.1.16-4.01-.34-12.78-7.91-8.77-7.57-9.46-8.46-9.76-11.55l-.07-.06-8.51,9.85.07.06c3.1-.16,4.08.4,12.85,7.97ZM74.53,67.74l4.32.07c1.89.1,3.31.25,4.04,1.08,1.13,1.29.88,2.8-.37,3.9-1.22,1.07-2.48,1.3-6.22,1.88l-.06.06,5.88,6.03c1.19-.64,3.59-2.22,5.04-3.49,4.78-4.19,6.18-9.76,1.88-14.66-1.89-2.15-4.34-3.22-7.3-3.26l-4.7.03c-1.74-.05-3.01-.11-3.71-.9-.9-1.02-.6-2.28.65-3.38,1.09-.95,2.77-1.43,5.75-1.42l.07-.06-5.7-5.36c-1.02.43-2.54,1.35-3.83,2.48-4.68,4.11-6.12,9.83-2.34,14.13,1.69,1.92,3.9,2.85,6.6,2.87ZM110.2,60.21c3.36-2.06,5.58-4.31,6.47-5.63l-3.91-7.88-.04.02c-1.1,3.83-2.02,5.33-4.04,6.56-4.55,2.8-9.62,1.92-12.8-3.26-2.65-4.32-1.01-8.84,3.18-11.41,2.69-1.65,4.02-1.74,7.97-.24l.08-.05-5.78-8.24c-1.23.5-3.95,1.6-6.27,3.02-8.29,5.09-11.7,14.1-6.63,22.36,4.93,8.03,14.08,9.45,21.77,4.73ZM114.24,39.81c-3.21-9.19,1.46-17.08,9.82-20,8.4-2.93,16.91.3,20.12,9.49,3.21,9.19-1.42,17.06-9.82,20-8.36,2.92-16.91-.3-20.12-9.49ZM122.28,36.25c2.12,6.07,6.35,8.47,10.52,7.01,3.52-1.23,5.13-5.24,3.33-10.4-2.12-6.07-6.35-8.47-10.48-7.02-3.48,1.21-5.17,5.26-3.37,10.42ZM165.71,26.62l3.35,2.73c1.43,1.24,2.45,2.25,2.51,3.35.09,1.72-1.03,2.75-2.7,2.84-1.62.09-2.75-.51-6.05-2.36h-.09s.9,8.38.9,8.38c1.33.24,4.19.48,6.12.37,6.34-.35,10.89-3.86,10.53-10.37-.16-2.86-1.43-5.22-3.72-7.07l-3.71-2.88c-1.33-1.12-2.3-1.95-2.36-3-.08-1.36.93-2.17,2.6-2.26,1.44-.08,3.06.58,5.4,2.44h.09s-1.17-7.75-1.17-7.75c-1.07-.29-2.84-.51-4.54-.41-6.21.34-10.89,3.95-10.57,9.67.14,2.55,1.31,4.65,3.42,6.34ZM191.61,17.88c-.16,1.98-.43,4.65-.83,8.55-1.09,10.73-1.5,12.15-4.16,14.49v.09s3.78.22,6.96.58c3.18.36,6.59.79,6.59.79v-.09c-2.13-2.79-2.25-4.17-1.15-15.03.4-3.9.67-6.57.91-8.54,4.01.41,4.95.68,6.65,1.69h.09s1.09-7.63,1.09-7.63h-.09c-.91.34-10.07-.54-11.55-.69-1.4-.14-10.02-1.06-10.81-1.58h-.09s-1.04,7.63-1.04,7.63h.09c2.14-.62,3.07-.7,7.34-.26ZM214.69,29.79c5.44-6.52,7.55-9.03,8.53-10.2-.39-.99-.85-1.91-1.59-3.13l.03-.09,9.04,2.66c-.08.9.11,1.96,1.86,16.02,1.73,14.6,1.6,15.86,2.83,17.6l-.03.08s-3.54-1.43-6.15-2.47c-2.62-1.05-5.96-2.2-5.96-2.2l.03-.09c1.03-.7,1.69-1.24,2.05-2.47.31-1.06.37-2.65.22-5.26-1.25-.41-2.64-.82-4.19-1.28-1.89-.56-3.53-1.04-5.04-1.35-1.42,2.02-2.15,3.41-2.46,4.47-.37,1.27-.12,2.12.33,3.22l-.02.08s-2.69-.68-5.7-1.37c-3-.69-5.95-1.2-5.95-1.2l.03-.08c1.8-.67,2.74-1.61,12.15-12.93ZM219.43,33.39c1,.34,2.09.66,3.27,1.01.84.25,1.68.5,2.44.72-.08-1.12-.21-2.4-.35-3.78-.18-1.57-.31-2.98-.39-4.25-.73.93-1.6,2.01-2.68,3.34-.87,1.08-1.61,2.05-2.29,2.95ZM249.98,60.33l.04-.08c-.94-3.38-.5-4.86,4.59-14.52,1.83-3.47,3.08-5.84,4.04-7.58,3.57,1.88,4.34,2.48,5.54,4.06l.08.04,3.87-6.67-.08-.04c-.98-.02-9.14-4.27-10.46-4.96-1.24-.65-8.9-4.74-9.43-5.51l-.08-.04-3.83,6.7.08.04c2.21.22,3.11.49,6.91,2.49-.89,1.77-2.14,4.15-3.96,7.62-5.03,9.54-5.98,10.85-9.32,12.03l-.04.08s2.89,1.3,6.14,3.02c3.25,1.72,5.92,3.33,5.92,3.33ZM266.12,52.74c-7.04,9.19-8.16,10.11-11.2,10.62l-.05.07s3.89,2.75,7.89,5.71c2.96,2.19,8,6.53,8,6.53l5.52-6.44-.07-.05c-2.31-.44-4.02-.81-6.24-2.51-.94-.72-1.77-1.36-2.47-1.95,1.14-1.57,2.69-3.65,4.78-6.38,1.77,1.36,4,3.07,6.77,5.58l3.38-4.62c-2.27-1.36-4.13-2.67-5.63-3.82-.52-.4-.98-.81-1.4-1.13,1.23-1.61,2.29-2.91,3.16-3.9.72.5,1.49,1.08,2.32,1.73,2.09,1.6,3.22,2.86,4.11,4.65l.07.06,3.97-5.83-.07-.06c-1.13-.54-3.92-2.67-15.56-11.6l-.06.07c.3,3.06-.16,4.09-7.2,13.28ZM287.08,93.15c1.89,2.58,4.87,4.26,9.46,5.24-.96.71-3.29,2.67-3.29,2.67,0,0,.81,1.03,2.64,4.03,1.83,3,2.75,4.69,2.75,4.69l.07-.05c.71-3.35,2.49-4.38,11.48-10.95,9.34-6.84,10.36-7.31,13.44-6.91l.07-.05-7.69-10.5-.07.05c-.54,3.06-1.3,3.89-10.65,10.72-2.35,1.72-4.26,3.12-5.89,4.26-1.63-.44-3.66-1.12-5.11-3.1-1.58-2.16-1.45-3.77,1.5-5.93l5.47-4c7.78-5.69,8.8-6.17,11.88-5.76l.07-.05-7.72-10.54-.07.06c-.54,3.06-1.28,3.92-9.3,9.8-4.34,3.17-6.25,4.36-7.03,4.93-5.12,3.74-5.17,7.1-2.01,11.41ZM315.02,107.27c-11.3,4.82-12.68,5.24-15.48,3.96l-.08.03s1.57,3,2.68,5.21c1.06,2.12,2.6,5.57,2.6,5.57l.08-.04c1.04-3.06,2.42-3.7,10.92-7.33.93-.4,1.78-.76,2.49-1.11-2.49,8.07-5.95,18.15-7.85,23.11l.22.29c2.26-1.2,5.29-2.62,14.33-6.48,11.3-4.82,11.9-4.98,14.54-3.96l.08-.04-4.64-10.88-.08.04c-1.12,3.1-2.03,3.77-9.73,7.05-.53.23-1.05.45-1.58.67,2.02-7.05,4.54-15.95,6.1-21.95l-.3-.49c-3.98,1.89-6.64,3.07-9.31,4.21l-4.98,2.12ZM311.8,140.77l-.09.02s.81,2.32,1.66,6.25c.84,3.84,1.34,6.41,1.34,6.41l.09-.02c1.69-2.61,3.03-3.04,14.3-5.71,11.27-2.67,12.39-2.71,15.08-1.14l.09-.02-3.01-12.66-.09.02c-1.69,2.61-2.71,3.07-13.98,5.75-11.27,2.67-12.71,2.68-15.39,1.1ZM347.24,172.65h-.09c-.87.86-1.59,1.35-2.95,1.44-2.06.14-5.61-.71-13.6-3.28-1.58-.51-2.93-.94-4.02-1.31,1.11-.56,2.35-1.17,3.8-1.89,7.81-3.84,11.06-5.29,13.09-5.43,1.27-.09,2.01.34,3.03,1.07h.09s-.89-12.9-.89-12.9h-.09c-1.2,1.76-1.37,1.94-14.45,8.69-12.74,6.63-13.71,7.18-14.58,7.38l.42,6.03c1.25.26,4.01,1.22,15.45,5.26,13.88,4.84,14.25,5.12,15.5,6.57h.09s-.8-11.64-.8-11.64ZM347.22,188.8c-2.48,1.82-3.61,1.94-15.11.54-11.5-1.4-12.6-1.92-14.57-4.28h-.09c-.57,8.57-1.96,15.71-2.69,19.79v.09s8.29,1.52,8.29,1.52v-.09c-.78-2.22-1.34-3.87-.99-6.66.14-1.17.27-2.22.43-3.13,1.93.19,4.51.46,7.93.88-.27,2.22-.61,5-1.37,8.66l5.7.56c.01-2.65.2-4.92.43-6.79.08-.65.2-1.26.26-1.78,2.01.24,3.67.49,4.97.74-.06.88-.18,1.83-.31,2.88-.32,2.61-.83,4.23-1.92,5.9v.09s7.03.46,7.03.46v-.09c-.1-1.25.32-4.73,2.11-19.3h-.09ZM342.97,218.62l.08.03c-.68,1.76-1.08,2.97-2.09,6-.93,2.79-1.39,4.44-2.99,9.26-2.08,6.24-5.97,8.04-11.15,6.31-3.38-1.13-5.53-3.73-6.29-6.76-12.91,2.4-14.65,2.92-15.82,4.46l-.08-.03c.98-2.72,1.8-4.97,3.07-8.29.41-1.06.93-1.54,2.1-1.84,2.41-.68,6.92-1.39,11.59-2.19.37-.98.75-1.83,1.12-2.54-8.66-2.84-9.67-2.79-12.06-1.46l-.09-.03s.89-2.4,1.91-6.12c1.01-3.72,1.78-6.39,1.78-6.39l.08.03c1.22,2.76,2.46,3.26,13.91,7.08,11.45,3.81,12.3,3.91,14.91,2.47ZM334.47,227.11c-2.16-.76-4.44-1.57-6.91-2.39-.45,1.05-.85,2.12-1.04,2.7-.73,2.2.17,4.07,2.43,4.83,2.34.78,3.9,0,4.76-2.57.23-.71.47-1.55.76-2.56ZM322.56,249.25c-2.23-1.24-4.63-1.38-7.19-.5l-4.1,1.37c-1.82.54-3.21.87-4.17.33-1.5-.84-1.77-2.34-.95-3.8.79-1.41,1.9-2.05,5.23-3.85l.04-.08-7.55-3.72c-.91,1-2.65,3.29-3.59,4.97-3.1,5.54-2.57,11.27,3.12,14.45,2.5,1.4,5.17,1.58,7.97.64l4.42-1.59c1.66-.53,2.88-.9,3.8-.39,1.19.67,1.33,1.95.52,3.4-.71,1.26-2.13,2.27-4.95,3.26l-.04.08,7.17,3.15c.82-.74,1.94-2.12,2.78-3.62,3.04-5.43,2.49-11.31-2.51-14.1ZM304.04,267.42c-9.25-6.96-9.93-7.75-10.43-10.81l-.07-.05s-1.69,2.33-3.82,5.25c-2.13,2.92-4,5.14-4,5.14l.07.05c3.08-.37,4.02.07,13.28,7.03,9.25,6.96,10,7.8,10.5,10.87l.07.06,7.82-10.4-.07-.05c-3.08.36-4.09-.12-13.35-7.09ZM300.19,285.02c-.88,2.04-1.41,2.81-4.47,5.83-1.42-1.38-3.31-3.29-6.06-6.09-7.57-7.69-8.41-8.9-8.52-12.44l-.06-.06s-2.92,2.92-4.87,4.91c-1.94,1.98-4.84,4.65-4.84,4.65l.06.06c3.51.13,4.65.92,12.32,8.69,2.75,2.79,4.64,4.7,6,6.15-2.87,2.83-3.68,3.38-5.55,4.04l-.06.06,5.19,5.7.06-.06c.32-.93,6.84-7.41,7.9-8.46,1-.98,7.21-7.04,8.11-7.31l.06-.06-5.22-5.67-.06.06ZM275.98,305.51c-5.01-2.41-7.53-3.64-8.86-4.28-5.05-7.65-5.3-8.96-4.8-11.9l-.05-.07s-3.54,2.62-5.65,3.94c-2.11,1.32-5.65,3.68-5.65,3.68l.05.07c2.88.66,4.04,1.37,9.17,8.9.17,1.58.39,4.41.71,9.83.65,8.33.59,8.79.12,10.44l.05.07,9.19-6.2-.05-.07c-1.27-.31-2.06-.63-2.6-1.43-.74-1.09-1.03-3.02-1.59-7.38-.03-.83-.11-1.57-.18-2.22.64.31,1.31.61,2.03.97,3.95,2.17,5.63,3.11,6.35,4.17.57.84.51,1.62.39,2.93l.05.08,11-7.42-.05-.08c-1.71-.34-2.11-.22-9.63-4.02ZM152.31,312.96c-5.78,1.14-8.48,1.49-12.19,1.69l-.02.08c.95.58,1.19.86,1.49,1.34.83,1.27.46,2.84-1.29,10.21-.23.97-.44,1.86-.63,2.67-2.16,9.33-2.28,9.84-5.44,10.97l-.02.08,13.52,3.19.02-.09c-1.84-2.72-1.87-3.75.77-14.89,2.81-11.86,3.04-12.84,3.79-15.25ZM174.8,337.81c-.54,5.32-5.72,8.52-12.28,7.86-5.64-.57-10.75-3.79-10.24-8.9.31-3.12,3.8-5.3,7.8-6.39-3.05-2.23-4.76-4.54-4.4-8.1.48-4.72,4.85-7.34,10.4-6.78,4.99.5,8.63,3.36,8.21,7.56-.29,2.9-3,4.38-6.38,5,3.83,2.31,7.34,5.24,6.88,9.74ZM166.87,337.1c.18-1.82-1.58-3.18-3.77-4.67-.5-.31-1.04-.67-1.49-.98-.9,1.05-1.63,2.11-1.8,3.8-.27,2.68,1.35,4.11,3.54,4.34,1.71.17,3.34-.67,3.52-2.49ZM165.1,320.43c-1.62-.16-2.76.68-2.9,2.02-.16,1.65,1.21,2.88,3.5,4.29.13.06.21.11.29.16.87-.7,1.47-1.47,1.63-3.03.21-2.12-.95-3.29-2.53-3.45ZM200.73,329.14c.63,9.55-6.04,16.71-15,17.3-1.45.09-3.26,0-4.54-.09l-1.53-8.53h.04c1.51,1.42,3.6,2.42,5.35,2.3,3.99-.26,7.3-3.66,7.68-8.53-1.48,1.54-3.5,2.41-6.22,2.59-5.18.34-8.34-2.81-8.65-7.67-.37-5.6,3.69-10.32,10.22-10.75,6.54-.43,12.09,4.92,12.64,13.39ZM192.73,329.41c-.35-4.64-2.12-7.45-4.44-7.3-1.88.12-2.99,2.07-2.86,4.16.16,2.35,1.51,4.18,4.54,3.98.96-.06,1.87-.38,2.76-.84ZM226.6,323.16c2.28,9.3-3.04,17.5-11.75,19.63-1.41.35-3.21.56-4.49.7l-2.99-8.14h.04c1.73,1.13,3.96,1.75,5.67,1.33,3.88-.95,6.54-4.87,6.08-9.73-1.19,1.77-3.03,2.98-5.67,3.63-5.04,1.23-8.7-1.32-9.86-6.05-1.34-5.45,1.83-10.8,8.19-12.36,6.36-1.56,12.76,2.74,14.78,10.99ZM218.77,324.81c-1.15-4.51-3.39-6.97-5.65-6.41-1.84.45-2.59,2.56-2.09,4.59.56,2.28,2.22,3.85,5.16,3.13.94-.23,1.77-.7,2.58-1.3ZM124.61,315.41l-.15-1.47-1.29.79c-1.98,1.21-4.2,1.96-6.51,2.19l-1.51.15.78,1.26c1.23,1.98,1.99,4.22,2.22,6.54l.15,1.47,1.29-.79c1.98-1.21,4.2-1.96,6.51-2.19l1.51-.15-.78-1.26c-1.23-1.98-1.99-4.22-2.22-6.54ZM240.46,314.6l-1.3-.78-.13,1.47c-.21,2.32-.94,4.57-2.15,6.57l-.77,1.27,1.51.13c2.31.2,4.55.93,6.54,2.12l1.3.78.13-1.47c.21-2.32.94-4.57,2.15-6.57l.77-1.27-1.51-.13c-2.31-.2-4.55-.93-6.54-2.12Z"/>
</svg>